# xmcd CD database file
#
# Track frame offsets:
#	150
#	25885
#	64566
#	99029
#	128172
#	160383
#	191466
#	217705
#	259517
#
# Disc length: 3711 seconds
#
# Revision: 0
# Processed by: cddbd v1.5PL3 Copyright (c) Steve Scherf et al.
# Submitted via: CDex 1.51
#
DISCID=680e7d09
DTITLE=IGUANA - Mysterious Planet
DYEAR=1900
DGENRE=Jazz
TTITLE0=Yellow Stone
TTITLE1=Harakiri
TTITLE2=Turn it on
TTITLE3=Spirit
TTITLE4=Playing Domino
TTITLE5=No time for sessions
TTITLE6=Out now
TTITLE7=Extasy
TTITLE8=Thank you my life
EXTD=
EXTT0=
EXTT1=
EXTT2=
EXTT3=
EXTT4=
EXTT5=
EXTT6=
EXTT7=
EXTT8=
PLAYORDER=
